#!OML:ASF H:\LiuWeirdWalks\Patient Classification 1\Patient 1\Session 1\male.ASF
:FULLY-SPECIFIED
:DEGREES
291
root -0.569807 17.7844 -27.1311 2.75815 8.65551 3.3403
lowerback 5.79205 -1.7206 -2.96484
upperback 1.38042 -2.4141 2.42719
thorax -1.59333 -1.19701 4.34012
lowerneck -16.0441 0.241065 3.57729
upperneck 24.7662 1.17169 -6.7049
head 10.664 0.0667368 -2.85806
rclavicle -2.98177e-015 2.38542e-015
rhumerus -17.7706 -25.6005 -1.34592
rradius 29.8017
rwrist 0.134076
rhand -18.3328 -3.63752
rfingers 7.12502
rthumb 7.94912 -33.4681
lclavicle -2.98177e-015 2.38542e-015
lhumerus -23.2925 22.159 13.2275
lradius 36.2764
lwrist -0.50937
lhand -11.3563 5.56718
lfingers 7.12502
lthumb 14.6773 35.0277
rfemur -11.225 -3.80442 9.69839
rtibia 34.9226
rfoot -14.1219 -27.3983
rtoes -1.65263
lfemur -7.10767 -3.09662 -16.2668
ltibia 23.0457
lfoot -8.40007 17.2923
ltoes -10.2817
292
root -0.593738 17.78 -27.1143 2.76558 8.65007 3.45647
lowerback 5.76981 -1.73491 -3.03949
upperback 1.39599 -2.43733 2.42126
thorax -1.55967 -1.20949 4.37633
lowerneck -16.089 0.251951 3.59007
upperneck 24.7211 1.19825 -6.77144
head 10.6583 0.0715616 -2.88005
rclavicle 1.31198e-014 1.66979e-014
rhumerus -17.6211 -25.6051 -1.41742
rradius 29.8275
rwrist 0.0534095
rhand -18.3617 -3.64404
rfingers 7.12502
rthumb 7.92122 -33.4756
lclavicle 1.31198e-014 1.66979e-014
lhumerus -23.3645 22.3763 13.1199
lradius 36.1143
lwrist -0.620221
lhand -11.3237 5.56803
lfingers 7.12502
lthumb 14.7087 35.0262
rfemur -11.2693 -3.85573 9.65139
rtibia 35.1295
rfoot -14.2601 -27.3832
rtoes -1.74027
lfemur -6.98416 -3.14014 -16.3073
ltibia 22.935
lfoot -8.38615 17.3219
ltoes -10.3304
293
root -0.618578 17.7755 -27.0972 2.76823 8.65102 3.55621
lowerback 5.75256 -1.74685 -3.09323
upperback 1.40684 -2.45617 2.41738
thorax -1.53485 -1.21956 4.40288
lowerneck -16.141 0.266823 3.60647
upperneck 24.6858 1.22624 -6.82501
head 10.6577 0.0788059 -2.89808
rclavicle -7.55382e-015 9.54166e-015
rhumerus -17.495 -25.602 -1.47949
rradius 29.8576
rwrist -0.0109693
rhand -18.4007 -3.65699
rfingers 7.12502
rthumb 7.88362 -33.49
lclavicle -7.55382e-015 9.54166e-015
lhumerus -23.432 22.5554 13.0249
lradius 35.9809
lwrist -0.700059
lhand -11.3135 5.58394
lfingers 7.12502
lthumb 14.7184 35.0414
rfemur -11.3091 -3.89783 9.6287
rtibia 35.3344
rfoot -14.406 -27.3844
rtoes -1.8144
lfemur -6.85865 -3.18715 -16.3249
ltibia 22.8214
lfoot -8.36548 17.3481
ltoes -10.3876
294
root -0.644143 17.7709 -27.0799 2.77149 8.66536 3.6604
lowerback 5.7387 -1.76301 -3.14709
upperback 1.40829 -2.48064 2.41535
thorax -1.52095 -1.23205 4.43213
lowerneck -16.1806 0.286259 3.61883
upperneck 24.6541 1.26134 -6.87497
head 10.6565 0.0895366 -2.91311
rclavicle 2.18663e-015 8.74653e-015
rhumerus -17.3659 -25.6453 -1.53233
rradius 29.8705
rwrist 0.00347379
rhand -18.4287 -3.64358
rfingers 7.12502
rthumb 7.85653 -33.4776
lclavicle 2.18663e-015 8.74653e-015
lhumerus -23.518 22.6881 12.9354
lradius 35.8821
lwrist -0.732516
lhand -11.3438 5.65936
lfingers 7.12502
lthumb 14.6893 35.119
rfemur -11.3421 -3.94027 9.60553
rtibia 35.5351
rfoot -14.5509 -27.3991
rtoes -1.89239
lfemur -6.7348 -3.24523 -16.3448
ltibia 22.7067
lfoot -8.33576 17.3737
ltoes -10.4548
295
root -0.67045 17.7664 -27.0623 2.77203 8.69324 3.75176
lowerback 5.7179 -1.78428 -3.1794
upperback 1.4057 -2.51039 2.4179
thorax -1.50751 -1.24715 4.45408
lowerneck -16.2188 0.30825 3.62561
upperneck 24.6491 1.30287 -6.92428
head 10.6652 0.102642 -2.92677
rclavicle -7.7526e-015 5.56597e-015
rhumerus -17.2452 -25.6759 -1.58059
rradius 29.8875
rwrist 0.0473495
rhand -18.4404 -3.61782
rfingers 7.12502
rthumb 7.84531 -33.4523
lclavicle -7.7526e-015 5.56597e-015
lhumerus -23.6143 22.8148 12.8427
lradius 35.794
lwrist -0.782459
lhand -11.3773 5.72822
lfingers 7.12502
lthumb 14.657 35.1902
rfemur -11.3661 -3.98105 9.60199
rtibia 35.7263
rfoot -14.6927 -27.4289
rtoes -1.96262
lfemur -6.61533 -3.3142 -16.3466
ltibia 22.5983
lfoot -8.30486 17.3968
ltoes -10.5261
296
root -0.697455 17.762 -27.0442 2.7654 8.73095 3.81931
lowerback 5.70238 -1.80707 -3.18107
upperback 1.39552 -2.54035 2.42567
thorax -1.50592 -1.262 4.46455
lowerneck -16.2537 0.337178 3.64467
upperneck 24.6643 1.35304 -6.97764
head 10.6814 0.120315 -2.94336
rclavicle 1.98785e-016 -1.19271e-014
rhumerus -17.1344 -25.7426 -1.62403
rradius 29.8941
rwrist 0.158873
rhand -18.4273 -3.56297
rfingers 7.12502
rthumb 7.85793 -33.3969
lclavicle 1.98785e-016 -1.19271e-014
lhumerus -23.704 22.9188 12.7536
lradius 35.7141
lwrist -0.817159
lhand -11.4049 5.80611
lfingers 7.12502
lthumb 14.6305 35.27
rfemur -11.3766 -4.01337 9.63039
rtibia 35.9068
rfoot -14.8376 -27.4754
rtoes -2.02281
lfemur -6.49648 -3.39074 -16.3188
ltibia 22.4976
lfoot -8.27752 17.4185
ltoes -10.5885
297
root -0.725555 17.7577 -27.0258 2.75083 8.77233 3.85002
lowerback 5.67864 -1.8392 -3.15108
upperback 1.39775 -2.58034 2.45335
thorax -1.48642 -1.28259 4.47773
lowerneck -16.2816 0.366237 3.65162
upperneck 24.6552 1.41056 -7.04883
head 10.6879 0.138279 -2.96262
rclavicle 8.34896e-015 -1.90833e-014
rhumerus -16.993 -25.7989 -1.68773
rradius 29.9069
rwrist 0.251078
rhand -18.4188 -3.51712
rfingers 7.12502
rthumb 7.86615 -33.3508
lclavicle 8.34896e-015 -1.90833e-014
lhumerus -23.8097 23.0738 12.6546
lradius 35.6291
lwrist -0.851989
lhand -11.3988 5.84282
lfingers 7.12502
lthumb 14.6363 35.3063
rfemur -11.3766 -4.02174 9.70886
rtibia 36.0753
rfoot -14.9839 -27.5471
rtoes -2.06923
lfemur -6.38036 -3.46792 -16.2446
ltibia 22.4066
lfoot -8.25822 17.4364
ltoes -10.6382
